<svg width="800" height="800" viewBox="0 0 800 800" fill="none" xmlns="http://www.w3.org/2000/svg">
<g clip-path="url(#clip0_119_22)">
<g opacity="0.6">
<path d="M351.351 799.761C545.266 799.761 702.466 642.561 702.466 448.646C702.466 254.731 545.266 97.531 351.351 97.531C157.435 97.531 0.23584 254.731 0.23584 448.646C0.23584 642.561 157.435 799.761 351.351 799.761Z" fill="#AEB2D3"/>
<path d="M624.441 351.115C721.398 351.115 799.998 272.515 799.998 175.557C799.998 78.5998 721.398 0 624.441 0C527.483 0 448.883 78.5998 448.883 175.557C448.883 272.515 527.483 351.115 624.441 351.115Z" fill="#EFE388"/>
</g>
<path d="M516.872 172.786L6.52813 683.128C-8.70621 698.363 3.64377 735.416 34.114 765.886C64.5843 796.356 101.637 808.708 116.872 793.472L627.216 283.128L516.872 172.786Z" fill="#6F7475"/>
<path d="M544.458 255.543L34.114 765.888C64.5843 796.358 101.637 808.709 116.872 793.473L627.216 283.129L544.458 255.543Z" fill="#4E565A"/>
<path d="M516.872 172.786L6.52807 683.128C-3.68128 693.338 -1.48754 713.344 10.2281 734.602L544.458 200.372L516.872 172.786Z" fill="#5F6568"/>
<path d="M585.838 103.819L516.872 172.784C501.638 188.018 513.988 225.071 544.458 255.542C574.929 286.012 611.982 298.364 627.216 283.128L696.181 214.164L585.838 103.819Z" fill="#E7E4CD"/>
<path d="M641.011 158.992L544.46 255.543C574.93 286.014 611.983 298.365 627.218 283.129L696.183 214.165L641.011 158.992Z" fill="#C1BDAB"/>
<path d="M696.169 214.176C711.404 198.941 699.054 161.89 668.583 131.419C638.113 100.949 601.062 88.5986 585.826 103.834C570.591 119.069 582.942 156.12 613.412 186.591C643.882 217.061 680.934 229.412 696.169 214.176Z" fill="#D5D2BD"/>
</g>
<defs>
<clipPath id="clip0_119_22">
<rect width="800" height="800" fill="white"/>
</clipPath>
</defs>
</svg>
